<?xml version="1.0" standalone="no"?>
<!DOCTYPE svg PUBLIC "-//W3C//DTD SVG 20010904//EN"
 "http://www.w3.org/TR/2001/REC-SVG-20010904/DTD/svg10.dtd">
<svg version="1.0" xmlns="http://www.w3.org/2000/svg"
 width="559.000000pt" height="219.000000pt" viewBox="0 0 559.000000 219.000000"
 preserveAspectRatio="xMidYMid meet">

<g transform="translate(0.000000,219.000000) scale(0.100000,-0.100000)"
fill="#000000" stroke="none">
<path d="M262 1988 c-7 -7 -12 -19 -12 -27 0 -8 -7 -22 -16 -32 -20 -23 -12
-65 15 -74 24 -7 29 -48 37 -290 5 -148 3 -224 -10 -343 -14 -120 -15 -156 -6
-167 17 -20 46 -19 68 3 16 16 42 20 163 25 288 12 438 85 521 254 29 60 32
75 36 183 5 133 -8 189 -60 273 -91 144 -296 215 -543 188 -84 -10 -100 -9
-115 4 -20 18 -61 20 -78 3z m458 -124 c110 -31 193 -108 222 -208 18 -61 14
-195 -8 -257 -37 -102 -125 -171 -254 -198 -30 -7 -110 -15 -176 -18 l-122 -6
6 215 c3 138 0 262 -8 343 -6 69 -10 128 -8 130 2 2 33 8 68 14 80 12 207 5
280 -15z"/>
<path d="M1707 1862 c-28 -6 -46 -54 -58 -157 -13 -108 -7 -321 10 -376 27
-89 85 -140 164 -147 73 -6 121 12 178 65 l47 44 17 -51 c17 -52 42 -74 70
-64 28 11 32 43 17 118 -9 45 -15 149 -17 287 -1 119 -5 221 -9 228 -13 21
-55 12 -73 -15 -14 -22 -18 -59 -23 -203 -5 -161 -7 -180 -30 -226 -30 -60
-72 -87 -137 -88 -39 0 -50 4 -74 30 -51 57 -59 158 -33 382 8 73 13 139 10
147 -7 17 -37 31 -59 26z"/>
<path d="M2367 1853 c-31 -35 -67 -312 -67 -523 0 -160 22 -214 78 -194 l26 9
1 200 c0 183 2 204 22 247 26 57 63 83 117 82 72 -2 75 -15 69 -229 -5 -160
-4 -190 11 -230 14 -35 23 -45 41 -45 41 0 47 20 40 137 -12 202 16 377 66
403 55 30 101 14 125 -44 22 -52 21 -223 0 -378 -9 -59 -13 -114 -10 -122 10
-25 33 -26 60 -3 35 30 53 111 61 272 12 266 -41 385 -175 385 -53 0 -100 -21
-141 -63 l-33 -35 -37 25 c-44 30 -107 27 -153 -7 -16 -12 -31 -20 -33 -18 -1
1 2 29 8 60 8 44 7 61 -3 73 -17 20 -53 19 -73 -2z"/>
<path d="M3288 1841 c-81 -26 -128 -96 -128 -188 1 -80 26 -130 96 -189 96
-81 104 -91 104 -124 0 -38 -39 -80 -75 -80 -43 0 -84 27 -93 62 -10 39 -31
53 -65 44 -50 -12 -42 -101 14 -153 71 -65 218 -56 283 16 26 29 46 111 37
153 -13 55 -27 73 -107 140 -42 34 -80 73 -85 86 -15 39 -10 88 11 115 38 48
97 43 157 -15 56 -54 111 -14 77 57 -28 60 -150 100 -226 76z"/>
<path d="M1158 1789 c-25 -14 -22 -41 8 -101 51 -101 66 -240 38 -358 -17 -75
-13 -105 17 -113 28 -8 64 29 79 79 6 22 14 97 17 167 7 141 21 178 76 205 24
12 33 11 72 -9 36 -18 47 -20 60 -9 23 19 18 63 -9 89 -51 48 -152 36 -205
-25 -17 -19 -32 -34 -35 -34 -2 0 -10 15 -16 34 -23 72 -61 99 -102 75z"/>
<path d="M3633 1611 c-18 -5 -40 -14 -48 -21 -19 -16 -20 -54 -1 -69 17 -14
214 -5 233 10 18 15 17 54 -2 69 -18 15 -137 22 -182 11z"/>
<path d="M2171 925 c-67 -57 -151 -243 -151 -334 0 -61 56 -98 173 -115 55 -8
54 -5 36 -148 -14 -108 -5 -138 40 -138 19 0 34 7 39 17 6 10 15 72 21 138 7
65 13 120 15 122 1 2 26 7 55 13 28 5 60 14 71 20 21 11 26 45 11 69 -9 14
-55 17 -91 6 -26 -8 -26 -2 11 102 65 185 64 181 49 197 -7 9 -28 16 -47 16
-31 0 -36 -4 -55 -47 -12 -27 -35 -100 -53 -163 -35 -129 -39 -133 -121 -110
-40 12 -44 15 -44 44 0 57 29 131 81 211 29 46 49 86 47 99 -5 32 -48 33 -87
1z"/>
<path d="M3087 943 c-16 -16 -3 -58 52 -174 60 -126 111 -266 153 -418 27 -98
44 -115 85 -85 64 46 191 362 224 556 11 68 11 79 -4 102 -17 26 -60 36 -72
17 -3 -5 -17 -65 -30 -133 -29 -140 -64 -260 -98 -333 l-24 -50 -52 160 c-62
188 -120 315 -157 344 -26 21 -64 28 -77 14z"/>
<path d="M2742 895 c-129 -56 -211 -216 -199 -385 12 -166 92 -246 242 -244
72 1 119 20 174 69 45 41 52 72 23 98 -27 24 -44 21 -78 -14 -41 -43 -76 -59
-130 -59 -39 0 -51 5 -79 33 -32 32 -55 88 -55 134 0 19 4 21 40 16 46 -6 208
12 289 33 78 21 95 41 94 107 -2 96 -49 171 -128 208 -49 23 -146 24 -193 4z
m166 -100 c59 -50 69 -123 18 -136 -55 -15 -201 -27 -239 -21 l-38 7 26 51
c56 113 163 158 233 99z"/>
<path d="M3882 897 c-54 -17 -125 -89 -162 -163 -29 -59 -34 -81 -38 -164 -6
-128 12 -193 68 -244 54 -49 81 -58 165 -59 57 -1 80 4 121 26 53 27 104 78
104 103 0 16 -35 54 -50 54 -6 0 -35 -20 -66 -45 -47 -39 -61 -45 -100 -45
-25 0 -58 7 -73 15 -35 17 -71 88 -71 136 l0 36 53 -4 c28 -3 97 2 152 11 198
31 219 45 213 141 -8 127 -102 216 -227 214 -31 -1 -71 -6 -89 -12z m148 -92
c34 -17 73 -86 68 -118 -2 -17 -14 -24 -63 -34 -66 -14 -230 -22 -240 -12 -10
11 20 73 56 114 55 62 120 80 179 50z"/>
<path d="M4945 868 c-36 -19 -116 -102 -136 -140 -27 -53 -49 -119 -49 -151 0
-49 40 -180 65 -209 14 -16 25 -34 25 -38 0 -19 107 -89 159 -104 30 -9 90
-16 133 -16 100 0 170 31 235 105 64 72 85 119 91 198 4 58 1 79 -22 137 -45
113 -125 168 -257 177 -88 6 -115 -1 -196 -54 -70 -45 -123 -136 -123 -210 0
-60 47 -163 89 -192 44 -32 111 -54 176 -58 70 -4 114 17 164 81 35 44 45 86
39 156 -7 66 -45 115 -116 148 -54 25 -55 25 -109 8 -32 -10 -67 -31 -88 -52
-32 -32 -35 -40 -35 -93 0 -54 3 -62 39 -102 36 -41 42 -44 86 -42 66 2 95 31
95 94 0 40 -4 51 -27 69 -15 11 -36 20 -47 18 -31 -4 -33 -44 -4 -68 19 -15
21 -22 12 -37 -32 -52 -104 -2 -104 73 0 58 32 84 105 84 82 0 111 -14 131
-66 21 -55 14 -103 -22 -155 -32 -46 -76 -63 -149 -57 -82 7 -159 75 -172 152
-21 130 54 217 201 232 170 17 276 -74 276 -238 0 -61 -3 -71 -42 -130 -36
-52 -54 -68 -108 -96 -61 -31 -70 -33 -147 -29 -87 5 -129 22 -200 85 -45 39
-86 133 -91 207 -3 50 1 72 23 122 24 52 38 69 89 104 34 24 63 44 65 45 2 2
1 15 -3 29 -7 27 -20 31 -51 13z"/>
<path d="M4288 849 c-25 -14 -22 -37 13 -112 45 -98 58 -216 35 -333 -9 -49
-14 -97 -11 -106 11 -27 45 -29 70 -4 33 33 44 83 52 229 7 141 21 179 76 205
24 12 33 11 72 -9 36 -18 47 -20 60 -9 23 19 18 63 -9 89 -51 48 -152 36 -205
-25 -17 -19 -32 -34 -35 -34 -2 0 -10 15 -16 34 -23 72 -61 99 -102 75z"/>
</g>
</svg>
